<svg xmlns="http://www.w3.org/2000/svg" width="96px" height="96px" viewBox="0 0 10240 10240" preserveAspectRatio="xMidYMid meet"><g fill="#fcfcf9"></g><g fill="#ed3b77"><path d="M3490 8844 c-316-35-491-89-559-170-31-37-32-43-28-104 2-36 16-105 31-153 26-82 30-88 49-82 12 4 71 20 131 36 l110 30 20-21 c16-16 18-24 10-38-11-18-34-26-178-63 l-88-22 6-31 c3-17 19-96 36-175 74-347 116-707 175-1471 14-184 28-345 31-358 4-21 9-23 44-17 148 25 191 21 198-17 6-31-25-45-123-56-54-6-100-14-103-17-3-3 2-110 11-238 27-357 36-529 37-684 l0-143 45 0 c56 0 137-30 186-70 46-36 61-37 102-6 69 51 119 69 206 74 l83 5-7 276 c-12 494 29 1256 95 1774 11 81 17 153 14 161-6 16-83 33-189 42-91 8-115 17-115 43 0 37 25 44 127 37 53-4 116-12 141-18 25-6 47-7 51-2 5 5 16 59 25 119 37 232 110 541 162 685 14 39 23 77 21 84-3 8-43 23-89 36-46 12-91 26-101 32-23 12-19 46 8 64 17 11 33 8 110-17 50-16 97-29 105-28 22 0 140 254 140 300 0 44-24 68-101 103-130 60-351 96-614 101-99 2-196 1-215-1z" data-index="1" style="opacity: 1;"></path><path d="M791 5372 c-42-157-46-192-45-437 0-209 3-253 22-338 94-424 340-799 662-1010 145-95 349-175 545-213 137-27 390-25 515 4 166 39 478 150 612 218 53 27 88 25 88-6 0-36-312-309-472-412-53-35-97-68-98-75 0-6 38-41 84-77 94-73 124-118 105-159-13-29-48-47-92-47-56 0-194 28-292 60-52 16-103 30-113 30-9 0-48-21-87-46-38-25-114-66-167-92-69-34-97-52-97-65-1-10 33-58 75-105 42-48 86-106 97-129 20-42 20-43 1-64-15-17-26-20-59-16-55 8-199 64-324 126-56 28-111 51-121 51-10 0-69-20-132-44-126-50-318-106-450-132-65-12-88-21-88-32 0-23 144-159 246-231 106-76 332-188 463-231 214-69 474-102 641-81 47 6 141 24 210 40 69 17 168 40 221 51 52 11 106 28 118 36 40 28 83 161 127 389 19 102 35 139 65 155 44 24 82-25 135-178 36-103 47-104 121-7 179 233 305 583 349 970 9 77 18 101 45 115 36 20 56-14 105-173 194-644 503-1014 1014-1215 311-123 683-144 1021-58 281 71 581 240 744 419 82 90 83 104 8 112-276 30-607 120-792 215-22 11-50 20-61 20-12 0-63-22-113-49-174-94-346-150-393-129-34 16-40 51-17 88 10 17 58 72 106 124 48 52 87 99 87 104 0 6-47 35-105 66-58 31-160 90-226 132 l-121 77-92-26 c-209-59-363-73-410-36-55 43-27 86 113 178 44 29 81 60 81 67 0 8-37 38-82 68-132 87-300 209-312 228-8 14-7 21 6 34 15 15 23 14 112-24 408-176 904-122 1223 132 207 165 356 429 387 689 7 52 6 57-12 57-11 0-48-13-83-29-76-34-225-84-301-101 l-54-12-38-80 c-45-97-146-208-188-208-52 0-55 16-45 225 2 26-1 30-23 28-14-1-78-5-144-9-119-7-119-7-135-37-79-146-199-287-244-287-57 0-69 60-45 227 7 45 10 85 7 87-10 10-348-45-552-90-187-42-213-21-111 87 84 89 114 156 121 265 11 167-56 313-173 376-112 60-218 44-315-49 l-58-55-63 56 c-45 41-77 61-115 72-163 47-326-79-369-288-35-169 25-315 168-405 35-22 70-48 78-58 13-15 12-19-10-37-27-22-46-21-272 12-214 32-488 111-667 191-35 16-69 29-75 29-8 0-11-54-11-179 0-162-2-181-19-200-27-30-50-26-90 15-72 74-146 255-176 429 l-11 70-77 44 c-42 24-123 72-179 107-55 35-108 64-116 64-11 0-19-18-27-57-25-125-54-216-77-244-29-34-42-36-76-8-50 38-107 279-107 447 l0 74-158 156 c-87 87-189 196-226 245-41 52-75 87-86 87-14 0-22-17-39-78z" data-index="2"></path></g><g fill="#f3b31c"><path d="M6763 8936 c-223-92-721-390-988-590-676-509-1175-1132-1378-1721-86-252-118-444-119-715 0-283 36-463 137-665 129-261 357-440 633-497 81-17 122-19 247-15 183 6 292 33 440 107 121 60 188 110 312 229 128 124 127 124 202-32 78-163 161-283 277-406 213-224 453-357 764-422 135-28 387-31 526-6 380 69 714 301 867 603 30 58 70 182 88 269 18 87 16 295-4 378-22 88-56 167-72 167-7 0-32-35-55-77-168-312-419-507-772-600-93-25-119-27-268-27-145 1-177 4-262 27-398 106-693 365-939 826-42 80-70 121-81 121-9 0-39-29-67-64-141-176-346-312-532-351-372-78-672 163-719 577-18 156 12 353 81 526 165 417 575 879 1127 1270 272 193 599 382 662 382 96 0 415-242 715-544 242-243 401-450 506-659 53-107 57-127 33-151-14-14-54-16-327-14 l-311 3-45 67 c-56 83-102 111-180 111-60 0-103-17-137-55-59-64-77-159-73-376 4-153 5-160 34-217 36-70 90-109 174-125 74-14 1463-14 1513 0 51 14 94 53 109 98 17 50 15 205-5 319-69 389-285 816-615 1213-133 161-472 497-621 616-347 278-638 454-750 454-28 0-76-13-127-34z" data-index="3" style="visibility: visible;"></path><path d="M9275 4633 c-15-89-45-194-70-243-54-107-171-191-307-221-65-14-72-25-28-42 17-6 30-15 30-18 0-4 30-17 66-29 163-52 256-165 291-353 22-122 26-132 48-132 17 0 22 13 36 95 38 218 123 328 294 381 69 22 75 26 70 46-5 20-1 23 35 29 51 8 44 19-17 28-84 11-175 53-236 107-82 73-111 137-154 344-6 30-13 41-30 43-18 3-23-3-28-35z" data-index="4"></path><path d="M8376 3962 c-3-5-12-54-20-110-62-410-207-647-481-782-94-47-261-100-314-100-17 0-22-4-17-15 3-9 0-24-6-34-18-29 7-46 93-65 179-40 337-112 431-196 140-124 230-332 279-636 27-171 31-184 64-184 32 0 40 20 49 124 27 309 147 588 309 717 104 83 281 152 482 189 84 15 105 25 105 49 0 30-32 48-95 56-83 9-202 40-250 65-21 11-48 20-58 20-68 0-270 165-335 273-80 133-139 318-162 507-6 52-14 103-16 113-5 17-48 24-58 9z" data-index="5"></path></g><g fill="#a72454"><path d="M3465 8933 c-166-14-359-58-468-107-69-30-144-98-168-151-30-66-24-127 35-332 125-436 156-655 246-1718 79-936 90-1095 97-1350 l6-240-50-32 c-197-127-280-421-177-626 14-29 34-61 45-73 30-32 23-37-38-29-160 19-417 94-635 186-65 27-131 49-147 49-45 0-55-44-47-197 8-148-4-162-48-50-27 69-66 229-66 273 0 36-36 70-137 127-54 31-156 94-227 141-70 47-136 86-146 86-29 0-40-24-61-132-29-150-29-150-42-145-18 6-36 108-42 242-4 66-8 130-10 141-3 12-52 63-109 113-105 91-221 219-349 385-66 84-69 87-105 84-46-4-72-41-107-148-52-167-60-228-60-490 0-197 4-262 18-333 66-326 247-668 472-893 137-137 218-198 366-273 307-156 681-216 979-155 41 9 143 37 225 64 l150 49-41-37 c-23-20-90-70-150-111-133-90-174-128-174-158 0-23 34-54 155-138 l50-35-37 0 c-50 0-157 24-247 55-105 35-122 33-221-27-47-28-143-81-214-118-71-36-134-73-139-81-17-27 0-61 73-147 39-45 64-82 56-82-18 0-147 55-243 104-40 20-86 36-102 36-17 0-63-13-103-29-193-76-410-139-563-162-132-20-140-22-143-50-7-59 184-259 362-378 133-88 291-165 451-220 195-65 291-81 525-87 200-6 208-5 305 21 55 15 123 32 150 37 244 48 305 70 342 127 30 44 67 163 95 301 13 61 25 110 28 110 3 0 21-44 39-97 42-122 55-143 86-143 66 0 254 245 351 458 51 111 119 320 144 442 11 58 23 116 26 130 5 19 16-4 53-105 186-508 468-840 885-1040 205-98 391-147 627-166 243-19 457 6 684 82 248 83 459 206 626 366 92 89 199 227 199 258 0 26-32 37-137 46-290 26-544 87-781 188-78 34-147 61-152 61-6 0-70-31-143-69-145-76-215-107-224-98-3 4 36 50 86 103 117 124 117 133 11 187-134 69-293 159-386 219-50 32-102 58-115 58-13 0-59-11-102-25-98-30-218-51-242-41-15 5 0 19 74 67 134 88 138 109 34 176-67 43-77 58-32 50 80-14 279-18 361-8 272 35 494 140 678 321 213 208 333 461 347 727 8 150-6 159-149 97-126-55-253-99-353-124-49-12-96-27-103-32-7-6-30-48-52-94-48-105-65-109-56-16 11 108 9 109-160 94-77-7-162-12-191-12-77 0-97-11-133-77-70-125-95-163-107-163-17 0-17 6 9 112 25 109 21 122-45 126-58 4-238-19-424-55-79-14-146-24-149-20-4 3 0 17 9 31 78 118 76 346-5 498-28 53-130 168-149 168-12 0-11 903 1 1120 42 741 120 1364 225 1780 46 183 83 286 172 475 98 209 106 230 97 278-8 48-69 119-128 149-105 54-291 98-495 118-96 9-334 11-426 3z m522-118 c261-37 423-104 423-174 0-19-91-227-126-289-1-2-45 10-98 27-53 17-101 31-107 31-22 0-58-48-52-69 7-27 20-34 121-61 45-12 85-26 88-31 3-5 0-17-5-27-37-70-132-456-171-697-11-71-25-138-30-147-6-10-12-57-15-105-3-48-12-139-20-203-62-492-102-1261-90-1737 l7-273-69 0 c-88-1-147-23-244-92-13-9-24-5-56 21-51 41-131 71-188 71 l-45 0 0 138 c0 152-11 358-36 685-10 119-15 219-12 222 3 4 49 11 103 17 105 12 128 24 123 67-5 44-39 53-144 37-95-14-104-11-104 31 0 36-59 767-76 938-37 390-95 769-150 989-8 32-13 60-11 62 2 2 56 17 121 33 65 17 124 35 132 42 20 16 17 53-6 74-18 16-23 16-96 0-42-9-101-25-130-35 l-54-17-26 86 c-15 47-29 111-31 141-4 50-2 58 28 94 68 81 242 134 559 170 74 9 380-3 487-19z m-3081-3462 c37-49 139-158 226-245 l158-156 0-74 c0-168 57-409 107-447 34-27 64-26 91 2 27 29 45 80 72 203 11 54 23 100 25 102 2 2 50-25 107-61 57-35 138-84 180-108 l77-44 11-70 c41-238 157-465 239-465 16 0 36 9 47 21 17 19 19 38 19 200 0 98 1 179 1 179 1 0 30-13 65-29 179-80 453-158 667-191 217-32 259-35 287-16 47 31 30 61-73 126-131 81-190 225-158 380 42 201 199 330 350 286 37-11 70-32 113-71 34-30 67-55 74-55 7 0 38 24 69 54 66 63 141 92 207 80 160-28 275-204 260-398-7-99-41-170-121-255-69-74-76-89-50-115 22-22 55-20 207 13 122 27 291 57 445 79 l64 9-8-56 c-5-31-9-96-9-145 0-84 1-90 26-108 26-19 28-19 63-3 57 27 154 149 228 284 17 31 18 31 95 32 43 0 102 4 131 8 29 4 54 5 56 2 2-3-1-42-5-86-10-99-3-142 26-161 20-13 28-13 57-1 51 21 134 120 176 207 l36 78 53 12 c78 17 197 57 291 97 46 19 85 33 88 31 2-3-3-43-11-89-44-252-192-495-398-650-317-240-789-287-1180-119-51 22-99 40-107 40-39 0-54-55-22-82 26-24 259-190 326-232 32-21 55-41 50-45-5-4-50-36-101-70-126-86-149-138-81-185 46-32 258-11 433 43 l67 21 119-75 c65-42 166-100 224-131 l105-56-86-93 c-102-110-124-141-124-175 0-31 8-44 38-59 46-24 230 34 412 131 l97 52 104-47 c197-88 458-157 704-187 49-6 91-13 93-15 7-6-74-100-127-147-130-116-332-235-516-303-375-139-801-137-1165 7-510 201-820 571-1014 1214-55 182-80 212-135 167-18-15-25-41-41-153-11-74-25-160-31-190-37-189-119-419-203-567-54-97-152-233-171-240-6-1-23 34-39 80-53 152-87 196-141 183-38-10-56-47-81-170-50-245-85-351-125-380-12-8-66-25-118-36-53-11-152-34-221-51-169-40-276-52-395-44-370 23-766 186-1039 428-35 31-74 70-85 86 l-20 28 87 17 c132 26 323 82 455 133 l118 46 107-53 c225-111 363-150 402-115 40 37 17 90-94 217-42 47-76 90-75 95 0 4 44 29 97 55 53 26 130 68 170 94 l73 46 100-31 c168-54 320-74 372-50 23 10 47 46 47 70 0 35-41 87-117 146 l-84 65 88 57 c112 73 208 150 355 285 124 112 142 134 132 160-12 32-52 30-132-7-175-81-427-170-592-209-124-29-359-31-495-4-195 38-400 118-545 213-322 211-568 587-662 1010-19 85-22 129-22 328-1 145 4 252 12 289 21 103 54 216 62 216 5 0 39-39 76-87z" data-index="6" style="opacity: 1;"></path></g><g fill="#9f1b4a"></g><g fill="#e19213"><path d="M6778 9036 c-148-52-502-249-793-441-327-215-532-382-801-650-464-461-746-896-898-1385-77-247-101-429-93-719 5-222 23-328 82-491 104-286 301-508 554-622 168-77 433-108 616-74 248 47 474 164 635 330 30 31 57 56 61 56 3 0 34-51 69-112 89-162 160-258 285-384 225-227 440-344 760-414 85-19 134-22 330-23 229-2 230-2 346 30 267 73 464 187 637 367 135 141 219 289 268 475 35 131 44 340 20 462-22 110-86 243-126 264-65 33-94 13-158-111-150-287-409-489-722-564-86-20-110-22-254-16-88 3-164 10-170 15-6 4-29 11-51 15-22 3-66 10-98 15-75 12-254 101-317 158-26 24-51 43-55 43-18 0-111 90-182 173-96 115-197 269-270 412-68 134-85 155-131 155-38 0-60-19-153-136-96-121-258-237-395-284-66-23-223-27-301-9-112 27-157 49-218 108-170 163-219 457-129 769 109 376 501 860 999 1233 296 222 682 459 748 459 28 0 136-66 248-151 252-191 546-486 721-723 67-90 178-273 178-293 0-10-51-13-250-13 l-249 0-15 28 c-8 15-39 51-68 79-46 46-61 54-112 64-166 30-295-60-347-246-22-79-19-404 4-471 40-116 112-188 221-219 52-15 139-17 819-18 l762-2 51 27 c158 83 186 265 98 619-97 390-304 771-632 1164-98 118-486 504-582 580-41 32-97 78-124 102-26 24-63 50-82 59-18 9-53 33-77 54-65 58-210 151-317 204-52 26-106 53-120 61-39 23-144 19-222-9z m222-109 c144-64 382-222 630-421 149-119 488-455 621-616 281-338 471-680 573-1034 53-182 74-398 47-478-15-45-58-83-109-98-50-14-1419-14-1493 0-84 16-138 55-174 125-29 56-30 65-34 206-3 155 8 259 36 313 36 72 91 108 164 108 69 0 116-31 170-110 l45-67 321-3 c353-3 353-3 353 58 0 37-82 200-159 315-188 283-565 667-867 883-130 92-206 132-254 132-102 0-570-290-930-577-157-125-421-385-534-527-317-395-454-755-417-1090 48-424 352-663 740-581 186 39 391 175 532 351 28 35 54 64 57 64 4 0 36-55 71-121 246-461 540-720 939-826 86-23 116-26 272-27 160 0 184 2 278 27 354 93 604 288 773 601 l42 79 19-37 c39-75 60-185 61-311 0-128-10-193-49-319-116-365-477-654-918-733-137-24-372-22-506 6-219 46-420 134-581 255-112 85-263 244-340 359-34 50-87 146-119 213-81 168-86 168-235 22-108-105-181-158-300-218-144-72-257-100-430-107-209-8-347 26-515 123-252 148-418 417-476 774-33 199-17 518 38 755 151 654 682 1368 1443 1941 357 269 986 623 1105 624 19 0 69-15 110-33z" data-index="7" style="visibility: visible; opacity: 1;"></path></g><g fill="#d79018"></g><g fill="#d23069"><path d="M3723 7389 c-19-19-16-67 5-77 9-5 53-12 97-16 102-8 185-26 186-40 2-23 17 41 18 76 1 35-2 38-36 48-65 17-256 24-270 9z" data-index="8"></path></g><g fill="#f3ad15"><path d="M8835 4152 c-3-3-5-13-5-23 0-13 10-20 34-25 42-7 62 2 46 22-7 7-15 13-18 12-19-2-33 3-28 10 5 9-21 12-29 4z" data-index="9"></path><path d="M9705 4152 c-18-6-22-17-15-39 1-5 2-12 1-16-2-12 72 3 88 18 34 32-15 56-74 37z" data-index="10"></path><path d="M7510 2960 c-46-8-60-17-60-39 0-26 18-37 72-44 39-5 46-4 42 8-4 8-10 15-16 15-5 0-6 5-3 10 4 6 11 7 17 4 7-4 8 2 3 17-10 34-15 36-55 29z" data-index="11"></path></g></svg>