<svg version="1.1" xmlns="http://www.w3.org/2000/svg" viewBox="0 0 2048 2048" width="96" height="96" preserveAspectRatio="none" display="block"><path fill="rgb(255,255,255)" d="M 0 0 L 2048 0 L 2048 2048 L 0 2048 L 0 0 z" data-c-fill="ffffff" fill-opacity="0"/><path fill="rgb(244,73,131)" d="M 436.411 343.427 C 447.678 342.947 480.343 343.854 491.492 348.838 C 523.531 363.162 571.461 355.254 593.362 386.083 C 597.805 392.338 601.896 407.933 603.644 414.689 C 608.42 433.147 611.94 451.672 616.21 470.084 C 620.184 460.496 633.076 419.443 637.247 416.744 C 641.575 416.206 645.843 418.281 648.941 421.174 C 704.263 472.822 737.351 557.834 745.598 630.294 C 753.319 613.476 760.409 590.362 767.757 572.415 C 828.033 425.181 974.621 339.51 1132.63 364.132 C 1216.74 377.237 1289.77 408.936 1344.25 477.525 C 1377.02 519.275 1349.85 509.132 1315.47 513.133 C 1262.85 519.258 1211.71 534.58 1163.02 555.355 C 1156.31 558.217 1149.61 560.27 1142.32 560.956 C 1114.75 546.366 1090.05 531.59 1060.13 521.589 C 1075.19 534.239 1095.46 551.878 1106.33 568.784 C 1107.6 570.759 1108.15 573.948 1107.14 576.144 C 1106.08 578.461 1104.59 579.946 1102.36 581.17 C 1085.68 590.296 1068.39 598.328 1051.74 607.526 C 1033.29 617.727 1015.83 630.971 996.65 639.664 C 994.648 640.571 991.6 641.956 989.399 641.546 C 977.803 639.387 965.388 635.233 953.932 632.47 C 938.857 628.835 923.429 626.692 908.074 625.571 C 917.152 630.618 926.632 636.059 935.542 641.416 C 943.29 646.075 960.491 654.505 959.066 664.85 C 952.075 674.468 941.169 678.469 931.284 685.888 L 930.257 686.672 C 1023.08 680.186 1106.46 694.231 1167.35 772.894 C 1198.63 813.302 1217.98 860.952 1216.09 912.847 C 1215.83 919.997 1210.09 923.787 1203.45 921.368 C 1182.13 914.455 1162.37 902.976 1140.51 897.365 C 1126.16 893.256 1106.33 889.558 1093.92 883.31 C 1092.5 882.595 1070.78 841.442 1067.72 836.474 C 1070.39 847.646 1076.5 867.977 1072.68 878.149 C 1063.99 884.77 1023.28 877.2 1009.87 877.569 C 987.7 878.181 981.026 874.761 971.895 855.026 C 967.467 845.454 957.49 830.307 949.92 822.334 L 948.947 821.326 C 951.924 831.87 964.256 867.629 955.947 874.715 C 939.485 881.058 846.018 860.404 826.078 855.369 C 840.34 877.388 847.623 893.093 846.763 920.144 C 845.593 956.885 829.131 980.475 802.629 1003.73 C 801.138 1034.87 801.802 1070.35 801.912 1101.63 C 802.169 1210.48 808.839 1319.21 821.888 1427.27 C 829.985 1491.75 839.853 1554.68 859.583 1616.7 C 869.493 1647.85 882.549 1674.39 896.647 1703.73 C 904.164 1718.56 907.005 1739.09 892.862 1750.57 C 854.636 1781.61 785.471 1787.31 737.23 1788.2 C 685.178 1787.8 616.055 1782.69 574.96 1748.44 C 545.95 1724.26 573.497 1674.83 580.625 1645.15 C 588.243 1613.43 595.023 1583.05 599.322 1550.71 C 609.147 1476.81 615.558 1402.82 621.522 1328.55 C 630.117 1221.71 640.816 1112.35 642.142 1005.31 C 636.097 1002.79 629.493 998.512 624.372 994.446 C 604.711 978.806 592.137 955.939 589.461 930.959 C 585.732 898.17 592.357 877.191 612.249 851.97 C 561.085 858.301 510.886 875.441 463.701 895.992 C 458.23 898.375 448.889 903.227 442.866 902.866 C 424.483 901.762 435.609 829.101 436.473 821.197 C 427.705 837.653 423.76 847.199 417.987 865.056 C 412.638 881.603 411.476 904.094 404.415 918.863 C 397.571 924.862 384.24 932.35 376.603 936.275 C 353.601 947.912 332.834 965.972 310.144 977.258 C 296.973 983.809 294.81 948.346 294.055 941.349 C 292.78 929.545 291.94 917.734 290.59 905.936 C 280.562 935.719 279.115 964.772 276.152 995.604 C 275.192 1005.59 256.557 1020 249.044 1027.15 C 236.265 1039.15 224.072 1051.77 212.508 1064.95 C 203.06 1075.69 192.54 1088.67 184.146 1100.16 C 171.253 1117.81 157.83 1127.54 147.588 1100.17 C 119.733 1025.72 123.522 928.438 154.273 855.256 C 227.201 681.698 400.553 608.309 574.687 681.124 C 562.706 668.053 540.777 653.986 526.905 643.702 C 511.065 631.959 484.355 623.873 509.745 605.794 C 522.929 596.406 534.867 589.032 547.227 580.405 C 519.295 584.444 494.787 589.751 467.934 598.393 C 464.856 599.383 462.285 599.258 459.357 597.994 C 443.074 590.968 428.07 580.979 412.125 573.173 C 402.291 567.299 378.21 557.599 370.411 551.756 C 354.908 540.143 411.788 496.787 419.067 490.738 C 387.062 500.766 358.772 516.425 329.266 531.739 C 323.444 533.099 311.989 528.323 307.114 526.303 C 270.829 511.267 233.877 498.896 194.992 492.774 C 185.779 491.323 170.327 490.579 162.189 486.825 C 161.275 477.115 177.798 459.189 184.385 452.329 C 249.054 384.986 343.881 347.422 436.411 343.427 z" data-c-fill="f44983"/><path fill="rgb(247,179,54)" d="M1489.52 819.409C1500.67 818.827 1511.5 818.7 1522.66 818.988 1625.79 821.655 1736 885.689 1766.34 988.565 1777.18 1025.33 1777.96 1071.79 1764.6 1108.02 1760.79 1118.37 1752.69 1139.14 1741.93 1143.68 1740.32 1144.35 1738.58 1144.65 1736.83 1144.55 1724.64 1143.9 1715.29 1120.28 1709.5 1110.52 1700.81 1095.8 1690.57 1082.06 1678.94 1069.53 1656.99 1045.53 1633.11 1028 1603.32 1016.24 1488.7 970.969 1382.63 1024.3 1318.11 1122.3 1309.11 1134.96 1303.55 1145.73 1295.47 1159.33 1288.74 1170.66 1282.2 1193.17 1269.86 1199.39 1266.91 1200.56 1261.15 1201.15 1258.75 1198.76 1227.4 1167.55 1205.14 1136.66 1162.56 1118.25 1110.17 1095.6 1049.28 1116.61 1027.51 1171.16 1009.9 1215.29 1015.24 1268.48 1033.58 1311.57 1086.41 1431.94 1195.23 1520.09 1302.86 1590.3 1323.45 1603.65 1352.69 1620.91 1374.57 1629.95 1394.68 1621.25 1427.07 1596.85 1444.37 1582.4 1495.37 1539.8 1544.28 1492.45 1580.18 1436.15 1590.23 1420.38 1599.13 1407.41 1605.69 1389.56 1592.66 1388.32 1575.59 1389.16 1562.09 1389.09 1547.26 1389.02 1531.7 1389.42 1516.86 1389.86 1498.91 1390.39 1500.61 1399.83 1489.81 1411.65 1480.3 1422.08 1468.77 1427.47 1454.67 1428.36 1440.6 1429.39 1426.72 1424.63 1416.25 1415.18 1382.05 1384.8 1380.19 1289.11 1411.12 1254.69 1425.86 1238.29 1447.15 1236.26 1467.83 1235.44L1657.61 1233.95C1686.01 1233.83 1723.94 1231.85 1751.25 1235.85 1819.98 1245.92 1795.22 1338.3 1783.09 1380.52 1753.97 1481.86 1690.93 1567.91 1618.86 1642.68 1594.93 1667.31 1569.74 1690.68 1543.38 1712.69 1513.97 1737.24 1412.96 1813.53 1377.28 1813.41 1353.76 1813.34 1326.54 1797.12 1306.06 1786.36 1232.86 1747.59 1163.94 1701.23 1100.43 1648.04 981.135 1549.47 873.93 1416.5 843.233 1261.2 837.47 1232.04 836.912 1205.15 836.454 1175.72 832.922 948.393 1067.57 840.049 1229 1009.57 1244.15 977.706 1259.87 951.555 1282.73 924.677 1334.93 863.501 1409.34 825.623 1489.52 819.409zM1677.92 367.692C1681.53 368.08 1686.63 368.846 1687.71 372.772 1690.17 381.711 1689.68 393.867 1690.93 403.168 1695.64 438.283 1704.06 469.996 1722.38 500.358 1750.64 547.179 1793.08 563.159 1844.53 573.308 1852.95 574.969 1864.57 575.944 1870.2 581.512 1875.11 593.256 1855.3 593.326 1848.4 594.375 1817.03 599.138 1788.13 607.702 1761.88 625.819 1709.26 662.122 1692.78 726.984 1688.02 787.274 1687.69 791.374 1684.65 793.054 1681.6 795.173 1678.57 794.084 1674.14 792.927 1673.71 789.451 1664.48 714.846 1646 643.846 1567.84 610.108 1553.74 604.097 1539.03 599.639 1523.96 596.816 1516.97 595.496 1496.3 593.351 1489.74 588.418 1488.09 587.169 1488.47 584.124 1488.6 582.064 1491.5 575.702 1512.93 573.075 1519.59 572.069 1563.35 565.46 1606.86 546.046 1632.55 508.593 1652 480.248 1662.42 445.271 1668.26 411.697 1670.4 399.228 1670.64 386.024 1673.23 373.614 1673.76 371.104 1676.04 369.228 1677.92 367.692zM1858.16 716.536C1859.65 716.583 1863.92 716.757 1864.25 717.908 1868.06 731.234 1870.15 750.093 1874.2 763.538 1876.1 769.855 1878.83 775.896 1882.3 781.508 1896.05 804.11 1915.18 814.914 1940.73 818.793 1945.39 819.5 1952.54 820.545 1955.87 823.678 1957.37 827.081 1957.23 825.413 1956.66 828.807 1951.93 834.146 1928.81 835.725 1917.23 841.455 1890.51 854.689 1876.32 875.739 1869.77 904.595 1867.7 913.686 1867.05 926.121 1863.97 934.054 1863.06 934.093 1861.28 934.204 1860.43 934.087 1853.26 933.102 1849.93 899.642 1847.67 892.45 1845.26 884.783 1841.46 876.833 1837.05 870.106 1812.04 831.991 1772.82 836.361 1765.89 827.044 1766.21 824.469 1767.02 822.999 1769.78 822.204 1790.25 816.308 1807.54 815.213 1823.92 799.787 1841.61 783.137 1849.05 760.337 1852.55 736.702 1853.49 730.299 1854.51 721.907 1858.16 716.536z" data-c-fill="f7b336"/></svg>